<svg width="15" height="16" viewBox="0 0 15 16" fill="none" xmlns="http://www.w3.org/2000/svg">
<path d="M9.0789 0.614002C8.14326 -0.204667 6.74629 -0.204667 5.81065 0.614002L0.847455 4.95679C0.308908 5.42802 0 6.10877 0 6.82437V13.5184C0 14.889 1.11105 16 2.48159 16H4.13598C5.04968 16 5.79038 15.2593 5.79038 14.3456V11.864C5.79038 10.9504 6.53105 10.2096 7.44477 10.2096C8.35849 10.2096 9.09917 10.9504 9.09917 11.864V14.3456C9.09917 15.2593 9.83984 16 10.7536 16H12.408C13.7785 16 14.8895 14.889 14.8895 13.5184V6.82437C14.8895 6.10877 14.5807 5.42802 14.0421 4.95679L9.0789 0.614002Z" fill="#191919"/>
</svg>
